<svg xmlns="http://www.w3.org/2000/svg" viewBox="0 0 512 512">
    <style>
        @media (prefers-color-scheme: dark) {
            .a { fill: #f0f0f0 }
        }
    </style>
        <path fill="#121212" d="M469.333 170.667C469.541 169.181 469.541 167.673 469.333 166.187V164.48C468.967 163.289 468.466 162.144 467.84 161.067C467.563 160.452 467.204 159.878 466.773 159.36L464.64 156.587L462.933 155.307L460.373 153.387L268.373 46.72C265.13 44.8476 261.451 43.8619 257.707 43.8619C253.962 43.8619 250.283 44.8476 247.04 46.72L55.04 153.387L53.12 154.88L50.7734 156.587C50.1536 157.284 49.6494 158.076 49.28 158.933C48.5975 159.546 48.0208 160.266 47.5734 161.067C47.0194 162.003 46.5892 163.007 46.2934 164.053C46.174 164.759 46.174 165.481 46.2934 166.187C44.8266 167.451 43.5983 168.969 42.6667 170.667V341.333C42.6944 345.135 43.7374 348.86 45.6877 352.123C47.6381 355.386 50.425 358.069 53.76 359.893L245.76 466.56C246.642 467.074 247.57 467.503 248.533 467.84H250.667C254.171 468.691 257.829 468.691 261.333 467.84H263.467L266.453 466.56L458.453 359.893C461.749 358.041 464.493 355.346 466.404 352.085C468.316 348.824 469.327 345.114 469.333 341.333V170.667ZM256 253.227L107.947 170.667L166.827 138.24L312.533 221.44L256 253.227ZM256 88.5333L404.053 170.667L356.267 197.333L210.56 113.92L256 88.5333ZM85.3334 206.933L234.667 290.56V411.733L85.3334 328.747V206.933ZM277.333 411.733V290.56L341.333 254.72V320L384 298.667V230.827L426.667 207.147V328.747L277.333 411.733Z" />
        <path class="a" fill="#121212" d="M469.333 170.667C469.541 169.181 469.541 167.673 469.333 166.187V164.48C468.967 163.289 468.466 162.144 467.84 161.067C467.563 160.452 467.204 159.878 466.773 159.36L464.64 156.587L462.933 155.307L460.373 153.387L268.373 46.72C265.13 44.8476 261.451 43.8619 257.707 43.8619C253.962 43.8619 250.283 44.8476 247.04 46.72L55.04 153.387L53.12 154.88L50.7734 156.587C50.1536 157.284 49.6494 158.076 49.28 158.933C48.5975 159.546 48.0208 160.266 47.5734 161.067C47.0194 162.003 46.5892 163.007 46.2934 164.053C46.174 164.759 46.174 165.481 46.2934 166.187C44.8266 167.451 43.5983 168.969 42.6667 170.667V341.333C42.6944 345.135 43.7374 348.86 45.6877 352.123C47.6381 355.386 50.425 358.069 53.76 359.893L245.76 466.56C246.642 467.074 247.57 467.503 248.533 467.84H250.667C254.171 468.691 257.829 468.691 261.333 467.84H263.467L266.453 466.56L458.453 359.893C461.749 358.041 464.493 355.346 466.404 352.085C468.316 348.824 469.327 345.114 469.333 341.333V170.667ZM256 253.227L107.947 170.667L166.827 138.24L312.533 221.44L256 253.227ZM256 88.5333L404.053 170.667L356.267 197.333L210.56 113.92L256 88.5333ZM85.3334 206.933L234.667 290.56V411.733L85.3334 328.747V206.933ZM277.333 411.733V290.56L341.333 254.72V320L384 298.667V230.827L426.667 207.147V328.747L277.333 411.733Z" />
</svg>